<?xml version="1.0" standalone="no"?>
<!DOCTYPE svg PUBLIC "-//W3C//DTD SVG 1.1//EN" "http://www.w3.org/Graphics/SVG/1.1/DTD/svg11.dtd" >
<svg viewBox="0 -64 512 512">
  <g transform="matrix(1 0 0 -1 0 448)">
   <path fill="currentColor"
d="M8 340c-1 -2 -3 -3 -4 -4h-1c0 -1 1 -2 1 -3v-1v-1l1 -1h1l1 -1v-1c1 0 1 1 2 1v1v1v1l1 1c0 -1 1 -2 1 -3v-1c0 -1 -1 -1 -2 -1h-1v-1c-1 0 -1 -1 -2 -1v-2c1 -2 1 -3 2 -5v-1c1 -2 1 -4 2 -6v-2c1 -2 1 -4 2 -6v-1c1 -2 1 -5 2 -7v-1c1 -2 1 -4 2 -6c0 -1 1 -1 1 -2v-1
c0 -2 1 -3 1 -5c0 -1 1 -1 1 -2c1 -1 0 -4 1 -5c0 -1 1 -2 1 -3c1 -1 2 -3 2 -4v-3l1 -1c0 -1 1 -2 1 -3v-3c1 -2 1 -3 2 -5v-3h1c0 -2 1 -3 1 -5v-2l1 -1c0 -1 1 -3 1 -4s1 -2 1 -3c1 -1 0 -4 1 -5c0 -1 1 -2 1 -3c1 -1 1 -2 1 -4c0 -1 1 -2 1 -3c1 -1 2 -3 2 -5v-2
c1 -1 1 -4 2 -5v-3c1 -1 1 -4 2 -5v-2l1 -2c0 -1 1 -3 1 -4s1 -1 1 -2c1 -2 0 -3 1 -5l1 -2c1 -2 0 -3 1 -5c0 -1 1 -2 1 -3c1 -2 1 -3 2 -5v-2c1 -2 1 -4 2 -6v-2c1 -2 1 -3 2 -5v-3h1c0 -2 1 -3 1 -5c0 -1 1 -1 1 -2c1 -1 0 -4 1 -5c0 -1 1 -2 1 -3c1 -1 1 -3 1 -5
c0 -1 1 -1 1 -2c1 -1 0 -4 1 -5c0 -1 1 -2 1 -3l1 -2v-3s1 -1 1 -2c1 -2 1 -3 2 -5v-2l1 -2c0 -2 0 -2 1 -4c0 -1 1 -2 1 -3v-1c1 -1 1 -2 1 -3s1 -2 1 -3c1 -2 0 -3 1 -5c0 -1 1 -2 1 -3c1 -1 1 -2 1 -4c0 -1 1 -2 1 -3v-2h1c0 -2 1 -3 1 -5v-2h1c2 0 3 1 4 2v2h-1v1
c0 1 -1 2 -1 3v1v-1c0 -1 1 -2 1 -3l1 -1c3 1 6 3 9 5l27 15c3 2 6 3 9 5l1 1v-1h1h1c1 0 1 1 2 1l1 1c1 0 0 0 0 1v1c-1 2 -1 3 -1 5v1v-1c0 -1 1 -3 1 -4c0 0 0 -1 1 -1c1 1 3 2 4 3c0 1 -1 1 -1 2c-1 4 -3 10 -4 14c-2 5 -5 9 -8 14c-10 18 -20 35 -30 53
c-8 15 -18 30 -26 45l-15 27c-1 2 -2 3 -3 4v1h-1h1h-1v1v1h-1v1v1c-2 2 -4 5 -5 7c-6 10 -11 20 -17 30c-7 12 -13 23 -20 35c0 0 0 1 -1 1zM4 336v0zM3 336v0zM8 343h1c1 -1 3 -1 3 -2l3 -7c5 -9 12 -19 17 -28c2 -4 4 -7 6 -11c4 -6 7 -14 11 -20c0 -1 1 -1 1 -2
c1 -2 2 -3 3 -5h1v-1v-1h1v-1l1 -1c1 -1 1 -3 2 -4l1 -1c4 -6 7 -12 10 -18c2 -3 3 -6 5 -9c4 -7 7 -13 11 -19c5 -8 9 -17 14 -25s10 -17 15 -25c5 -9 11 -19 16 -28c1 -1 1 -3 2 -4c2 -4 4 -7 6 -11c1 -2 1 -3 2 -5c1 -3 1 -6 2 -9c0 -1 1 -2 1 -4l-1 -1l-3 -3
c0 -1 -2 -2 -3 -3s-1 -2 -2 -2h-1c-1 0 -1 -1 -2 -1s-1 1 -2 1c-1 -1 -3 -2 -4 -3s-3 -1 -4 -2l-4 -2c-7 -4 -15 -9 -23 -13c-1 0 -1 0 -2 -1c-2 -1 -3 -2 -5 -3c0 0 -1 -1 -1 -2s0 -1 -1 -1c-1 -1 -3 -2 -5 -2h-2c-1 1 -2 2 -2 3v1c-1 2 -1 4 -1 5c0 0 -1 0 -1 1v1v1v1
s-1 0 -1 1v1c0 1 -1 2 -1 3v1l-1 1v1v2s-1 2 -1 3l-1 1v1v2l-1 1v1s-1 1 -1 2v2c-1 2 -1 4 -1 5h-1v1v2c-1 2 -1 3 -2 5v1s-1 1 -1 2v2v1c0 1 -1 1 -1 2v1c0 1 -1 0 -1 1v3l-1 2v1l-1 1v2c0 1 -1 1 -1 2v1s-1 1 -1 2v1c0 1 -1 1 -1 2v2l-1 1v1v1v1c0 1 -1 3 -1 4l-1 1v1v1
s-1 2 -1 3s-1 1 -1 2v1v1c0 1 -1 2 -1 3s-1 2 -1 3v1v1l-2 4v1v1v1l-1 1v2s-1 2 -1 3v1l-1 1v2s-1 2 -1 3v1h-1v2v1c0 1 -1 2 -1 3c0 0 -1 1 -1 2v2s-1 1 -1 2v2l-1 1v1c0 1 -1 1 -1 2v1s-1 2 -1 3v1v1l-1 2c0 1 -1 1 -1 2v1v2l-1 1v2c0 1 -1 1 -1 2v1v1l-1 1v2s-1 1 -1 2v1
s-1 1 -1 2v1v1c0 1 -1 2 -1 3v1l-1 1v1v1c0 1 -1 3 -1 4c0 0 -1 0 -1 1v1v1s-1 2 -1 3s-1 1 -1 2v2v1l-1 1v2s-1 1 -1 2v1v1c0 1 -1 0 -1 1s-1 2 -1 3v1v1s-1 1 -1 2v2s-1 1 -1 2v1s-1 1 -1 2v1c0 1 -1 2 -1 3v2h-1v2s-1 1 -1 2v3h-1v1c0 1 -1 2 -1 3s-1 2 -1 3v1v1
c0 1 -1 1 -1 2s-1 3 -1 4v1v1c0 1 -1 1 -1 2s-1 2 -1 3v1v1c0 1 -1 1 -1 2s-1 2 -1 3v1v1v3l-2 2v1v1c0 1 -1 2 -1 4c0 1 0 1 1 2h1v1h1c1 1 1 2 2 3s2 1 3 1zM218 40v0zM85 40v0zM84 44v0zM110 194v0zM133 373v0zM90 12v0zM115 216v0zM83 43v0zM259 37v0zM103 259v0zM94 -4
v0zM83 5v0zM316 86v0zM203 288v0zM114 229v1v-1zM121 231v0zM217 40v0zM123 237v0zM118 311v0zM82 362v0zM82 362v0zM214 175v0zM146 355v0zM74 375v0zM217 43v0zM146 355v0zM142 365v0zM222 122v0zM92 -2v0zM6 327v0zM326 62v-1v1zM324 58v0zM322 68v0zM82 363v0zM80 361v0
zM73 367v0zM143 204v0zM73 367v0zM71 358v0zM103 252v0zM71 366v0zM71 357v0zM130 244v0zM102 253h1h-1zM116 231v0zM71 357v0zM102 253v0zM95 277v0zM101 344v0zM176 172v0zM188 166v0zM172 171v0zM146 197v-1v1zM180 173v0zM99 257v0zM199 167v0zM154 188v0zM152 184v-1v1
zM97 272v0zM105 248v0zM77 331v0zM107 247v0zM84 346v0zM107 274v0zM119 256v0zM118 293v0zM119 263v0zM129 262v0zM91 326v0zM99 300v1v-1zM90 297v-1v1zM129 264v0zM115 265v0zM117 260v0zM114 285v0zM119 262v0zM116 270v0zM120 282v0zM98 298v0zM76 352l-1 1zM78 359v0z
M124 243v0zM130 249v0zM89 328v0zM83 349v0zM91 336v0zM124 255v0zM87 336v0zM84 336v0zM91 336v0zM96 301v0zM98 337v0zM139 389v0zM148 386v0zM75 47h-1h1zM75 48v0zM155 383v0zM30 331v0zM3 336v0zM215 260v0zM206 281v0zM212 267v0zM209 274v0zM149 386v0zM86 3v-1v1z
M86 3v0zM83 4v0zM84 4v0zM93 -3v0zM103 -3v0zM96 -5v0zM79 12v0zM82 22v0zM82 22v0zM78 8v0zM74 46v0zM78 9v0zM78 11v0zM101 -10v0zM129 229v0zM325 59v0zM288 126v-1v1zM289 126v0zM289 126v1v-1zM289 127v0zM300 120h1h-1zM312 67v-1v1zM325 59v1v-1zM310 63v-1v1z
M325 65v-1v1zM327 65v0zM312 63h-1h1zM326 68v0zM326 67v0zM326 65v0zM325 59v0zM103 -15v0zM103 -16v0zM264 31v0zM324 58v0zM314 70v0zM292 112v0zM300 108v0zM304 102v0zM296 117v0zM297 118v0zM310 100v0zM294 116v0zM97 -18v0zM309 65v0zM314 67v0zM311 66h1h-1z
M315 72v0zM316 72v0zM300 119v0zM87 324v0zM79 8v0zM81 14v0zM82 15v0zM80 13v0zM80 12v0zM232 232v0zM79 8v0zM135 218v0zM29 389v0zM218 252v0zM82 17v0zM73 31v0zM82 17v0zM82 15v0zM75 44v0zM82 16v0zM75 44v0zM76 54v0zM82 17v0zM82 17v0zM78 33h1h-1zM205 284h-1h1z
M194 6v0zM281 37v0zM98 1v0zM94 -0v0zM208 10v0zM287 128v0zM95 -4v0zM94 -4v0zM80 13v0zM89 0v0zM289 128v0zM117 -0v0zM284 43v0zM309 62v0zM103 -18v0zM102 -10v0zM103 -15v0zM86 3v0zM308 58v0zM95 -14v0zM95 -5v1v-1zM90 -1v0zM86 3v0zM93 -3v0zM95 -5v0zM100 -18h1h-1
zM308 65v0zM314 70v0zM314 91v0zM302 107v0zM319 77h-1h1zM299 119v0zM300 120v0zM72 54v0zM124 61h1h-1zM124 61v0zM123 61h-1h1zM118 54v0zM131 63v0zM124 61v0zM214 40v0zM129 36v0zM124 61v0zM237 38v0zM214 22v0zM177 250v0zM131 62v0zM46 361v0zM118 52v0zM91 14v0z
M118 65v0zM92 13v0zM127 23v0zM112 57v0zM132 28v0zM123 62v0zM128 42v1v-1zM112 57v0zM124 69v0zM116 54v0zM123 53h-1h1zM122 63v0zM77 279v0zM156 158h-1h1zM99 363v0zM134 218v0zM171 113v0zM110 237v0zM108 228v0zM97 360v-1v1zM81 362v1v-1zM110 237v0zM135 218v0z
M233 124h-1h1zM69 364v1v-1zM79 362v0zM89 48v0zM119 364h1h-1zM125 350v-1v1zM122 355v0zM78 375v-1v1zM77 279v0zM97 236h-1h1zM178 250v0zM55 345v0zM189 250h-1h1zM118 367h1h-1zM229 134v0zM125 349v0zM147 342v0zM150 335v0zM59 316v0zM54 309v0zM84 20v0zM55 328v0z
M82 31v0zM76 45v0zM77 232v0zM52 336v0zM141 386v0zM268 130v0zM286 129v0zM286 129v0zM154 351v0zM259 127v0zM286 129v0zM210 252v0zM251 38v0zM85 6v0zM87 5v0zM161 12v1v-1zM87 5v0zM213 21v0zM87 5v0zM91 1v0zM87 4v0zM146 18v0zM87 5v-1v1zM145 9h-1h1zM91 1v0z
M111 188v0zM136 373v0zM135 93v0zM162 337v0zM225 26v0zM247 29v0zM85 16v0zM81 41v0zM89 10v0zM81 41v0zM90 9v0zM222 38v0zM213 21v0zM49 366v0zM70 292v0zM97 7v0zM150 351v0zM92 1v0zM146 15v0zM106 385h-1h1zM282 51v0zM146 18v0zM172 19v0zM135 93h1h-1zM42 367v-1v1z
M89 11v0zM97 -18v0zM9 330v0zM7 331h1v1zM8 330v0zM9 330h-1h1zM63 234v0zM292 131v0v0zM292 130v0v0v0v0v0l-1 -1v0h-1v0v0h-1v-1v0v-1v0v0v0v0v0v0v-1v1v0v-1v0v0v0v0l-1 -1v1v0v-1h-1v0v0v0v0v0v0v0h3v0v0v0c1 0 1 -1 2 -1h1v0v0h2h1v0v0c1 0 1 1 2 0h1v0v0h1v-1v0v0v0v0
v-1h1v-1c1 0 0 -1 0 -1v0v0h-1h1h-1v0v-1v0v0v0h-1v0v0v0v0v0l-1 -1v0v0v0c0 -1 0 0 -1 0v0v0v0l-1 -1v0v0v0c-1 -1 -1 -1 -2 -1v0v0v0c-1 -1 -1 -1 -2 -1c0 0 -1 0 -1 -1h1v-1v0v-1v0v0v0v-1v0l1 -1v0v0v-1v-1l1 -1v0v0v0h1h1v0l1 1v0h2v0v0c0 1 0 0 1 0v0v0h1c1 0 1 1 1 0
v0v-1v-1v-1l1 -1v-1v0l1 -1v0v0v0v-1v-1h4h1h1v0v0s1 0 1 -1v0l1 -1v0v-1v0v-1v0v0c1 -1 1 -2 1 -3v0v0l1 -1v0v0v-1v-1l1 -1v-1v-1v0l1 -1v-1v-1v0l1 -1v0v-1v-1c1 0 1 0 1 -1v-1v0v-1v0v0l1 -1v-1v-1v-1l1 -1c-1 0 -2 0 -2 -1h-1h-1v0v0v0h-1v0v0v0l-1 -1v0v0v0v-1v0v0v0
v0v-1c1 -1 1 -2 0 -2v0v0v0v0v0s-1 -1 -2 -1v1v0v-1v0h-1v0h1c-1 -1 -2 -1 -3 -1v0v0v0h-1v0v0v0v0v-1v-1v0l1 -1l1 1v-1v1v0v0h1v0h1h-1h1v0v0v0l1 1v0h1v0h1v1v0h1l1 1v0v0v0v0v1h1v0v1v0h1v1v0h1v0v1v0c1 0 2 0 2 -1v0v0l1 -1h1s2 1 2 0v0v0v0v-1v0v0v0h1v0v-1v-1v0v0v0
h-1v0v0v0v0l-1 -1v1v0v-1v0v0v0c1 0 1 -1 1 -2v-1v0v0c0 -1 -1 -2 -1 -2v1v-1v0v0v0v0v0v0v0v0v0l-1 -1v0v0v0v0v-1v0c-1 0 -1 0 -2 1h-1s0 1 1 1v0v0v0h-1l-1 1v0h-1v0v0v0v0v0v1v0v0v0v0v0c-1 0 -1 1 -2 1v0v0l-1 -1v0h-1v0v0v0v0v0v0h-1v0v0l-1 -1h-1v0v0l-1 -1v0v0h-1v0
v0h-1v0h-1v0v-1v0h-1v0l-1 -1c0 -1 1 0 0 0v-1h-1v0c0 -1 0 0 -1 0l-1 -1c0 -1 0 0 -1 0v0l-1 -1h-1v0h-1v-1h-1h-1v0v-1v-1v-1h1v-1v-1c0 -1 1 -1 0 -1l-1 -1c-2 -1 -3 -1 -5 -1v-1v0v-1v-1c-1 0 -2 -1 -3 -1v-1c1 -1 0 -2 -1 -2s-2 -1 -3 -1v-1c-1 -1 -2 0 -3 0v0v0
c-1 0 0 -1 -1 -1l-1 -1c0 -1 -1 -2 -2 -1c-2 1 -3 3 -5 4v-2v-1c-1 0 -2 -1 -3 -1c-1 -1 -4 -1 -5 -2c0 0 -1 -1 -1 0v0v0v0v0c-1 0 -1 1 -2 2s-2 1 -3 2l-1 1v0v0c-2 -1 -3 -2 -5 -3v0c0 -2 1 -3 2 -4c0 -1 -1 -1 -1 -1c-1 -1 -2 -2 -4 -3c-5 -2 -9 -4 -14 -6
c-3 -1 -8 -3 -11 -4v0h-1c-2 0 -2 -2 -4 -2c-3 -1 -5 -1 -8 -2c-1 0 -3 -1 -4 -1c-2 -1 -4 -1 -6 -2c-1 0 -1 -1 -2 -1c0 -1 1 -1 0 -1h-1h-1c1 -2 2 -3 -1 -3c-1 0 0 1 -1 1v0v0c-2 -1 -5 -1 -7 -1h-1c0 1 -1 0 -1 0s-1 -1 -1 0v0v0v1v0v0c-3 -1 -6 -1 -9 -2s-7 -2 -10 -2
h-1h-2c-1 0 0 1 0 2c-1 1 -1 2 -1 3c0 0 0 1 -1 1c-4 -1 -7 -3 -11 -4h-5c-3 0 -6 -1 -9 -1v0c-1 -1 -2 -3 -3 -4c0 -1 -1 -1 -2 -1h-2v0c-1 -1 -2 -1 -3 -1h-1v0h-1c-1 0 -1 -1 -2 -1v0l-1 -1h-2v0v0h-1v-1h-1v0v0h-1v0v0v-1v0h-1v0h-1v0h-1v0l-1 -1v0v0h-1v0v0h-1v-1v0h-1
v0h-1v0v0v0v0h-1v-1v0h-1v0v0h-1v0h-1v-1v0h-1v0v0h-1v0v0v0v-2v0v0v0v0v-1v0v0v0h1v0v-1l-1 -1l-1 -1v0v0v0v-1v0c-1 -1 -1 0 -2 0h-1h-2v1v0c-1 0 -1 0 0 1v0v0v1h-1v1c-1 1 -2 0 -3 0s-2 0 -2 1v1v1v0v0v0v1c0 1 0 1 1 1c1 1 2 1 2 0h1v0c0 1 1 0 1 0v1c0 2 0 2 2 1h1h1
v0v0v0l1 -1v0v0v0h1v0h1v0h1v0v1h1v0v0v0v0v0h1v0v0v0v0h1v0l1 1v0h1v0l1 1v0h1v0v0c0 1 1 1 2 0v1h1v0v0v1l1 -1v0l1 1v0v0s0 1 1 0v0h1v0v0l-1 2v1v1v-1h-2s-1 1 -1 0c-1 -1 -1 -2 -2 -1l-1 1c-1 -1 -1 -2 -2 -1l-1 1c-1 -1 -1 -1 -2 -1v0c-1 -1 -2 0 -3 0v0v0v0v0
c-1 -1 -1 -1 -1 0s-1 0 -2 0l-1 1c-1 0 -2 -1 -2 -2s0 -1 -1 -1v0v0v0c-1 -1 -1 0 -1 0v0h-1c-1 0 -1 0 -1 1v1v0v0v0v0v0h-1c-1 0 -1 0 -1 1l-1 1v0c-1 0 -1 0 -1 1c-1 0 -2 0 -2 1c-1 0 -1 0 -1 1v0v1v0v-1v1v0v0v0h-1v0v0v0l-1 1v0v0v0v0v0h-1v0v0v0v1v0h-1v0v0v0v0v0h-1
s-1 0 -1 1v1v0v0v0v0v0v0l-1 1v0v0v0v0h-1v0v0v0v0v1v0v0v0v0v0v0v0v0h-1h-1v1v0v0c0 1 0 1 1 1h1v0v0v0v0v0v1h1v0v0v0v0l1 1v0v0v0v1h1v1h1v0v0v1v0v0v0v0v0v0v0l-1 1v0v0v0h1v0v1c0 1 1 1 1 1c0 1 -1 0 -1 1v1v1v0v0v0v0v0v0v0v0h-1v1v0v1v0v0l-1 1v0v1v0v0v1h1v1h-1v0v0
v0s-1 -1 -1 0h-1v1v0l-1 1v0v0v0v0v0h-1v0v0v0h-1v0v0v0v0v0v0l-1 1v0v0v0v0h-1v0v0h-1v0v0v0h-1v0v0v1v0v1v1v0v0v1v0v0v1v-1v1v0v1v0v0v0v1v0v0l1 1v0v1v0v0v0v1v0h1v1v0v1v0v1v0v0l1 1v0v0v1v0v0v0v0v1h1v0h-1l1 1v0v0v0v0v4v1v0c0 1 0 1 -1 1s-1 -1 -2 0v0
c-1 0 -1 0 -1 1v1l-1 1v0v0l1 1v0v0v0l1 1v0v0v0v0h1v0v0v0v0v0l1 1v0v0h1v0v0v1v0h1v0v0h1v0v1v0v0v0h1v0v0v0l1 1v0v0v0h1l1 1v1v0v0c0 1 0 1 -1 1h-1l1 1c1 0 2 2 3 2v2v0v1v0c0 1 -1 2 -1 3v2v-2s1 -2 1 -3v0l1 -1v0c4 2 8 5 12 7c11 6 22 13 33 19v0c1 0 1 0 1 -1
s1 0 2 0s0 1 1 1l1 1v0v0s1 0 1 1v1c-1 2 -1 3 -1 5v1v-1c0 -1 1 -3 1 -4h1c1 1 2 1 3 2v2c-1 4 -3 9 -4 13v1c-4 7 -9 15 -13 22s-7 13 -11 20l-12 21s-8 13 -12 20c-5 9 -10 17 -15 26l-12 21c-2 4 -4 7 -6 11c0 1 -1 1 -1 2v0v0l-1 1v0v0v1v0v0v0l-1 1v0v0v0v1v0v0l-1 1
c-3 6 -7 11 -10 17l-21 36c-4 6 -6 12 -10 18l-1 2v-1l-3 -3h-1v0v0v0h-1v0v0v0v0v0v0c0 -1 1 -2 1 -3v-1v-1v0c1 0 1 -1 1 -1v0l1 1v0v0h1v-1v-1v0h2v0v1v0s-2 0 -1 1v0v1h1l1 1s-1 1 0 1s1 -1 1 -1v-3v0c0 -1 -1 -3 -2 -3v0h-1c-1 0 -1 -1 -2 -1v0v0v-2v0v1h-1v0v1v0v0v1
c-1 0 -1 0 -1 1v1v2v0l-1 1v1v0v0v1v1v0v1v0v0v0v0v0v0h1v0v1v0v0v0h1v0v1v0v0c1 0 1 1 2 2h1v0v0c1 1 1 1 2 1v0v-1h1v0v0v0v0v-1v0v0h1v-1v0v0v0v0v0v0v0v-1h3v0v0v0h1v0c2 -1 5 -1 7 -2s3 -1 5 -2c1 0 1 0 1 -1v0v0v0l1 -1v0v0v0v0h1v-1l1 -1c2 -1 3 -1 5 -2
c1 0 2 -1 2 -1v0v0v0c4 -1 9 -1 13 -2c1 0 0 0 0 0c-1 2 -1 5 -2 7c-1 1 -1 1 -1 2v0v0c-1 3 -3 6 -4 9c-1 4 -3 8 -4 12c-2 5 -3 8 -5 13c-1 4 -3 7 -4 11s-4 8 -5 12v3s-1 1 -1 2l1 1c1 1 2 1 3 2c5 2 10 3 15 3h20s13 0 20 -1s15 -2 22 -3v0c1 0 1 -1 2 -1v0h2v0
c2 0 4 -1 6 -1c7 -1 14 -3 20 -5c1 0 1 0 2 -1v0v0v0v0v0l9 -3v0v0v0v0v0v0h1v0v0v0v0v0l6 -3v0v0h1c2 -1 4 -3 6 -5v-1c1 -6 3 -11 4 -17c1 -3 1 -6 2 -9l1 -1c1 -1 3 -2 4 -3c1 0 1 -1 1 -2v-1v-2c0 -3 1 -5 2 -7c0 -1 1 -1 1 -1c1 0 1 0 2 -1l9 -15c1 -1 2 -3 3 -4v0v-1
v0l1 -1v0v0v-1l1 -1c1 0 0 0 0 -1h1v-2c1 0 1 0 1 -1v-1s1 0 1 -1h-1h1c1 0 0 0 0 -1v-1s1 0 1 -1v0v0v-1v0l1 -1c1 0 0 0 0 -1l1 -1v0v-1v0v0v-1h1v-1v0l1 -1v-1v-1v0v0h1v0v-1v0v-1h1v-1v-1v0l1 -1v0v0v0v-1l1 -1v-1v0v-1l1 -1v0v0v0v0v-1l1 -1h-1h1v0v-1v0v-1h1v-1v-1h1
v-1v0v0v0v-1v0l1 -1v0v-1v0v-1v0l1 -1v-1l1 -1v0v0v0v0v-1v-1v0h1v-1v-1v0h1v-1v-1v0l1 -1v0v0v0v-1v0v0l1 -1v0v-1v0v-1v0l1 -1v-1v0h1v0v-1v0v0v0v-1h1v0v0v-1v0h1v-1v0v0v0v0v-1v0h1v0v0v-1v0v0v0h1v0v0v0v-1v0v0v0v-1v0h1v-1v0v0v0v0v0h1v-1v0v0v0v0v-1v0v0h1v0v-1v0v0
v0v0v-1v0v0v0h1v0v-1v0h1v0v-1v0v0v0v0l1 -1v0v0v0v0v-1v0v0v0v0h1v0v-1v0v-1h1v0v-1v0v0h1v-1v0v0v0v0v-1h1v0v0v0v-1v0h1v-1v0v0v-1v0h1v0v-1v0v0v0v0v0l1 -1v0v0v-1v0h1v0v-1v0v0v0v0v-1h1v0v0v-1h1v0v-1v0v0v0v0v-1h1v0v0v-1h1v0v-1v0v0v0l1 -1v0v0v0v0v-1v0v0v0h1v0v0
v-1v0v0v0v-1h1v0v0v-1v0h1v-1v0v0v0v0v0v-1v0h1v0v0v0v-1v0v0v0l1 -1v0v0v0v-1v0h1v0v-1v0v0v0v0v0v0l1 -1v0v0v0v-1v0h1v-1v0v-1h1v0v0v0v-1v0h1v0v-1v0v0v0v0v-1h1v0v-1v0h1v-1v0v0v0v-1v0h1v0v0v-1v0v0h1v0v-1v0v0v0v-1h1v0v0v-1v0v0l1 -1v0v0v0v-1v0h1v0v-1v0v0v0v0v0
l1 -1v0v0v-1v0h1v-1v0v0v0v0l1 -1v0v0v0v0v-1v0h1v0v-1v0v0v-1v0h1v0v0v-1h1v0v-1v0v0v0v-1v0h1v0v0v-1v0v0v0h1v0v-1v0v0v-1v0h1v0v0v-1v0v0v0h1v-1v0v0v0v0v-1v0h1v0v0v-1v0v0l1 -1v0v0v-1v0h1v0v-1v0v0v0v0v0l1 -1v0v0v0v0v0v-1v0h1v-1v0v-1h1v0v0v0v-1v0h1v0v-1v0v0v0
v-1h1v0v0v-1v0h1v0v-1v0v0v0v0v-1h1v0v0v-1v0v0v0h1v0v0v0v-1v0v0v0v0v0v0v-1h1v0v0v0v-1v0v0l1 -1v0v0v0v0v-1v0h1v0v0v0v-1v0v0l1 -1v0v0v-1v0v0v0v0h1v0v-1v0v0v0v0v0v0l1 -1v0v0v-1v0v0v0v0v0h1v-1v0v0v0v-1h1v0v0v-1v0v0h1v0v-1v-1v0v0v0l1 -1v-1v0v0v0v0v0v-1v0v-1h1
v-1v0v0v-1v0h1v0zM29 389v0zM6 327v0zM72 54v0zM73 31v0zM75 44v0zM76 54v0zM76 45v0zM78 33h1h-1zM81 41v0zM82 31v0zM83 43v0zM82 17v0zM82 17v0zM79 8v0zM80 12v0zM80 13v0zM80 13v0zM81 14v0zM82 15v0zM82 17v0zM82 17v0zM82 16v0zM82 15v0zM83 5v0zM84 20v0zM84 44v0z
M85 40v0zM85 16v0zM85 6v0zM86 3v0zM86 3v0zM87 5v0zM87 4v0zM87 5v-1v1zM89 48v0zM89 0v0zM89 10v0zM89 11v0zM90 12v0zM90 9v0zM90 -1v0zM91 14v0zM91 1v0zM92 -2v0zM92 13v0zM92 1v0zM93 -3v0zM94 -0v0zM94 -4v0zM94 -4v0zM95 -4v0zM95 -5v1v-1zM97 7v0zM98 1v0zM112 57
v0zM112 57v0zM116 54v0zM117 -0v0zM118 52v0zM95 -14v0zM101 -18h-1h1zM102 -10v0zM103 -15v0zM103 -18v0zM118 65v0zM118 54v0zM123 61h-1h1zM122 63v0zM123 53h-1h1zM124 69v0zM124 61v0zM123 62v0zM124 61v0zM124 61h1h-1zM127 23v0zM128 42v1v-1zM129 36v0zM131 62v0z
M131 63v0zM132 28v0zM135 93v0zM135 93h1h-1zM42 367v-1v1zM46 361v0zM49 366v0zM52 336v0zM53 337v0zM54 309v0zM55 328v0zM55 345v0zM59 316v0zM69 364v1v-1zM70 292v0zM71 358v0zM71 366v0zM71 357v0zM73 367v0zM74 375v0zM75 353l1 -1zM77 279v0zM77 279v0zM77 232v0z
M77 331v0zM78 359v0zM78 375v-1v1zM79 362v0zM80 361v0zM81 362v1v-1zM82 362v0zM82 363v0zM83 349v0zM84 346v0zM84 336v0zM87 324v0zM87 336v0zM89 328v0zM90 297v-1v1zM91 326v0zM91 336v0zM95 277v0zM96 301v0zM96 236h1h-1zM97 360v-1v1zM97 272v0zM98 298v0zM98 337v0
zM99 301v-1v1zM99 363v0zM99 257v0zM101 344v0zM102 253v0zM102 253h1h-1zM103 259v0zM103 252v0zM105 248v0zM107 247v0zM107 274v0zM108 228v0zM110 194v0zM110 237v0zM111 188v0zM112 238v0zM114 229v1v-1zM114 285v0zM115 265v0zM115 216v0zM116 231v0zM116 270v0z
M117 260v0zM118 311v0zM118 293v0zM118 367h1h-1zM119 262v0zM119 263v0zM119 256v0zM120 364h-1h1zM120 282v0zM121 231v0zM122 355v0zM123 237v0zM124 243v0zM124 255v0zM125 350v-1v1zM125 349v0zM129 262v0zM129 229v0zM129 264v0zM130 244v0zM130 249v0zM134 218v0z
M135 218v0zM142 365v0zM143 204v0zM144 9h1h-1zM146 196v1v-1zM146 18v0zM146 18v0zM146 355v0zM146 355v0zM146 15v0zM147 342v0zM150 335v0zM150 351v0zM152 183v1v-1zM154 188v0zM154 351v0zM156 158h-1h1zM158 375c1 6 -27 16 -62 21s-64 3 -65 -3s27 -15 62 -20
s64 -4 65 2zM161 12v1v-1zM162 337v0zM171 113v0zM172 19v0zM172 171v0zM176 172v0zM177 250v0zM178 250v0zM180 173v0zM188 166v0zM188 250h1h-1zM194 6v0zM197 252v0zM199 167v0zM203 288v0zM204 284h1h-1zM208 10v0zM210 252v0zM213 21v0zM214 40v0zM214 175v0zM214 22v0
zM217 43v0zM217 40v0zM218 40v0zM218 252v0zM222 122v0zM222 38v0zM225 26v0zM229 134v0zM232 232v0zM232 124h1h-1zM237 38v0zM247 29v0zM251 38v0zM259 127v0zM259 37v0zM268 130v0zM281 37v0zM282 51v0zM284 43v0zM286 129v0zM287 128v0zM326 61v1v-1zM324 58v0zM322 68
v0zM309 62v0zM314 70v0zM319 77h-1h1zM316 86v0zM314 91v0zM308 65v0zM302 107v0zM300 120v0zM299 119v0zM289 128v0zM272 170v0zM319 60v0zM222 248v0zM213 21v0zM53 337z" />
  </g>

</svg>
